<svg aria-hidden="true" style="position: absolute; width: 0; height: 0; overflow: hidden;" version="1.1" xmlns="http://www.w3.org/2000/svg" xmlns:xlink="http://www.w3.org/1999/xlink">
<defs>
<symbol id="youtube" viewBox="0 0 32 32">
<path d="M29.41 9.26c-0.332-1.207-1.263-2.138-2.446-2.464l-0.025-0.006c-2.18-0.591-10.94-0.591-10.94-0.591s-8.759 0-10.94 0.591c-1.207 0.332-2.138 1.264-2.464 2.446l-0.006 0.025c-0.376 1.956-0.59 4.205-0.59 6.504 0 0.083 0 0.165 0.001 0.248l-0-0.013c-0.015 2.26 0.183 4.517 0.591 6.74 0.332 1.206 1.263 2.137 2.444 2.464l0.025 0.006c2.181 0.591 10.94 0.591 10.94 0.591s8.759 0 10.94-0.591c1.207-0.332 2.138-1.264 2.464-2.446l0.006-0.025c0.406-2.223 0.603-4.48 0.59-6.74 0-0.068 0.001-0.149 0.001-0.23 0-2.301-0.215-4.553-0.627-6.734l0.035 0.225zM13.2 20.201v-8.401l7.27 4.201-7.27 4.201z"></path>
</symbol>
<symbol id="facebook" viewBox="0 0 32 32">
<path d="M17.862 27.996v-10.929h3.687l0.548-4.278h-4.234v-2.725c0-1.234 0.343-2.080 2.116-2.080h2.245v-3.815c-0.95-0.108-2.051-0.169-3.167-0.169-0.043 0-0.086 0-0.129 0l0.007-0c-3.258 0-5.495 1.989-5.495 5.642v3.138h-3.663v4.279h3.67v10.937h4.416z"></path>
</symbol>
<symbol id="vk" viewBox="0 0 32 32">
<path d="M28.483 19.677s2.587 2.555 3.227 3.737c0.013 0.016 0.023 0.036 0.029 0.056 0.261 0.436 0.325 0.779 0.197 1.032-0.216 0.417-0.947 0.627-1.195 0.644h-4.573c-0.319 0-0.981-0.083-1.787-0.64-0.616-0.429-1.229-1.139-1.823-1.832-0.887-1.028-1.653-1.92-2.429-1.92-0.002 0-0.003-0-0.005-0-0.101 0-0.198 0.017-0.289 0.049l0.006-0.002c-0.587 0.187-1.333 1.023-1.333 3.251 0 0.699-0.549 1.095-0.935 1.095h-2.095c-0.713 0-4.429-0.249-7.724-3.723-4.035-4.253-7.661-12.784-7.697-12.859-0.225-0.552 0.248-0.853 0.76-0.853h4.617c0.62 0 0.821 0.373 0.963 0.711 0.163 0.385 0.768 1.928 1.76 3.66 1.605 2.82 2.593 3.967 3.381 3.967 0.149 0 0.293-0.039 0.423-0.112 1.031-0.567 0.839-4.247 0.791-5.004 0-0.147-0.001-1.644-0.529-2.367-0.377-0.52-1.021-0.72-1.409-0.793 0.104-0.151 0.324-0.381 0.608-0.517 0.705-0.352 1.98-0.403 3.245-0.403h0.703c1.373 0.019 1.728 0.107 2.227 0.233 1.005 0.24 1.025 0.891 0.937 3.108-0.027 0.635-0.053 1.347-0.053 2.187 0 0.18-0.008 0.38-0.008 0.584-0.031 1.137-0.071 2.419 0.733 2.945 0.098 0.062 0.218 0.099 0.346 0.099 0 0 0.001 0 0.001 0h-0c0.279 0 1.112 0 3.373-3.88 0.992-1.713 1.76-3.733 1.813-3.887 0.044-0.084 0.179-0.323 0.341-0.419 0.104-0.056 0.228-0.090 0.36-0.090 0.006 0 0.012 0 0.019 0l-0.001-0h5.432c0.592 0 0.993 0.089 1.072 0.313 0.132 0.363-0.025 1.472-2.505 4.827-0.417 0.557-0.784 1.040-1.107 1.463-2.247 2.951-2.247 3.1 0.133 5.34z"></path>
</symbol>
</defs>
</svg>
